<?xml version="1.0" encoding="UTF-8" standalone="no"?>
<!-- Generator: Adobe Illustrator 22.1.0, SVG Export Plug-In . SVG Version: 6.00 Build 0)  -->

<svg
   version="1.1"
   id="Calque_1"
   x="0px"
   y="0px"
   viewBox="0 0 542.50026 2102"
   xml:space="preserve"
   sodipodi:docname="maxds-logo-light.svg"
   inkscape:version="1.3.1 (9b9bdc1480, 2023-11-25, custom)"
   width="542.50024"
   height="2102"
   xmlns:inkscape="http://www.inkscape.org/namespaces/inkscape"
   xmlns:sodipodi="http://sodipodi.sourceforge.net/DTD/sodipodi-0.dtd"
   xmlns="http://www.w3.org/2000/svg"
   xmlns:svg="http://www.w3.org/2000/svg"
   xmlns:rdf="http://www.w3.org/1999/02/22-rdf-syntax-ns#"
   xmlns:cc="http://creativecommons.org/ns#"
   xmlns:dc="http://purl.org/dc/elements/1.1/"><defs
   id="defs1"><linearGradient
     id="linearGradient28-1"><stop
       style="stop-color:#ee2f33;stop-opacity:1;"
       offset="0"
       id="stop27" /><stop
       style="stop-color:#f2642a;stop-opacity:1;"
       offset="0.51986754"
       id="stop79" /><stop
       style="stop-color:#f89730;stop-opacity:1;"
       offset="1"
       id="stop28" /></linearGradient></defs><metadata
   id="metadata69"><rdf:RDF><cc:Work
       rdf:about=""><dc:format>image/svg+xml</dc:format><dc:type
         rdf:resource="http://purl.org/dc/dcmitype/StillImage" /><dc:title>Logo-MAX-noir-reussite-collaborative</dc:title></cc:Work></rdf:RDF></metadata><sodipodi:namedview
   pagecolor="#ffffff"
   bordercolor="#666666"
   borderopacity="1"
   objecttolerance="10"
   gridtolerance="10"
   guidetolerance="10"
   inkscape:pageopacity="0"
   inkscape:pageshadow="2"
   inkscape:window-width="2560"
   inkscape:window-height="1298"
   id="namedview65"
   showgrid="false"
   inkscape:zoom="0.27689326"
   inkscape:cx="-1933.9582"
   inkscape:cy="1204.4352"
   inkscape:window-x="0"
   inkscape:window-y="221"
   inkscape:window-maximized="1"
   inkscape:current-layer="g62"
   inkscape:showpageshadow="2"
   inkscape:pagecheckerboard="0"
   inkscape:deskcolor="#d1d1d1" />
<title
   id="title2">Logo-MAX-noir-reussite-collaborative</title>
<g
   id="g62"
   transform="translate(-46.384504,-93.850397)">
	
	
	
	
	
	
	
	
	
	
	
	
	
	
	
	
	
	
	
	
	<path
   d="m 491.68474,859.1504 -117.7,-118.2 -244.59996,245.4 c -52.299998,50.7 -81.799998,120.5 -81.699998,193.4 0,149 120.799998,269.8 269.799998,269.8 148.99996,0 269.89996,-120.7 269.89996,-269.7 0.1,-74 -30.3,-144.8 -84.1,-195.7 l -49.8,-49.6 -7.8,7.8 v 0 l -55,55 v 0 l -55.19996,55.2 55.09996,54.9 0.2,-0.2 v 0.6 c 39.8,40.5 39.3,105.6 -1.1,145.4 -40.4,39.8 -105.59996,39.3 -145.39996,-1.1 -39.3,-39.9 -39.4,-103.9 -0.3,-144 v -0.3 l 146.59996,-147.1 z"
   id="path44"
   style="fill:#e2e8f0;fill-opacity:1" />
	<path
   d="m 512.98474,93.850397 -118.2,118.200003 c 38.3,41.8 35.5,106.8 -6.3,145.2 -18,16.5 -41.3,26 -65.69996,26.9 -2.1,0 -4.2,-0.1 -6.4,-0.1 h -2.7 c -56.7,-2.9 -100.3,-51.3 -97.4,-108 1.1,-22 9.3,-43 23.3,-60 l -118.3,-118.200003 c -96.599998,104.000003 -96.099998,265.100003 1.2,368.500003 -99.699998,103.1 -101.399998,266.1 -3.8,371.2 l 118.3,-118.3 c -36.1,-43.8 -29.8,-108.6 14.1,-144.7 17.4,-14.3 39,-22.5 61.5,-23.3 2.1,0 4.2,0.1 6.4,0.1 h 2.7 c 56.69996,2.9 100.29996,51.3 97.39996,108 -1.2,23.8 -10.7,46.5 -26.9,64.1 l 118.2,118.2 c 100.2,-103.6 101.3,-267.6 2.6,-372.5 101.2,-104.6 101.2,-270.7 0,-375.300003 z"
   id="path46"
   style="fill:#e2e8f0;fill-opacity:1" />
	
	
	
	
	<path
   d="m 202.58478,1452.0504 c -35.1,-14.8 -67,-36.3 -93.9,-63.3 -1.3,-1.3 -2.5,-2.6 -3.8,-3.9 -83.899998,105.7 -76.799998,257.1 16.5,354.5 -48.199998,50.2 -75.099998,117.1 -74.999998,186.7 0.1,149 120.899998,269.8 269.899998,269.8 3.5,0 7.1,-0.1 10.6,-0.2 h 260.69996 v -167 H 315.58478 v 0 c -1.6,0.1 -3.2,0.1 -4.8,0.1 -56.8,0 -102.8,-46 -102.8,-102.8 0,-56.8 46,-102.8 102.8,-102.8 1.6,0 3.2,0 4.8,0.1 v 0 h 271.99996 v -167.4 H 315.58478 c -1.6,0.1 -3.2,0 -4.8,0 -56.8,0 -102.8,-46.5 -102.8,-103.3 0,-33.8 16.6,-65.4 44.4,-84.6 -17,-3.8 -33.7,-9.1 -49.8,-15.9 z"
   id="path56"
   style="fill:#e2e8f0;fill-opacity:1" />
	
	
</g>
</svg>
