<?xml version="1.0" encoding="UTF-8" standalone="no"?>
<!-- Generator: Adobe Illustrator 22.1.0, SVG Export Plug-In . SVG Version: 6.00 Build 0)  -->

<svg
   version="1.1"
   id="Calque_1"
   x="0px"
   y="0px"
   viewBox="0 0 837.70028 2102"
   xml:space="preserve"
   sodipodi:docname="maxds-logo.svg"
   inkscape:version="1.3.1 (9b9bdc1480, 2023-11-25, custom)"
   width="837.70026"
   height="2102"
   xmlns:inkscape="http://www.inkscape.org/namespaces/inkscape"
   xmlns:sodipodi="http://sodipodi.sourceforge.net/DTD/sodipodi-0.dtd"
   xmlns:xlink="http://www.w3.org/1999/xlink"
   xmlns="http://www.w3.org/2000/svg"
   xmlns:svg="http://www.w3.org/2000/svg"
   xmlns:rdf="http://www.w3.org/1999/02/22-rdf-syntax-ns#"
   xmlns:cc="http://creativecommons.org/ns#"
   xmlns:dc="http://purl.org/dc/elements/1.1/"><defs
   id="defs1"><linearGradient
     id="linearGradient28-1"><stop
       style="stop-color:#ee2f33;stop-opacity:1;"
       offset="0"
       id="stop27" /><stop
       style="stop-color:#f2642a;stop-opacity:1;"
       offset="0.51986754"
       id="stop79" /><stop
       style="stop-color:#f89730;stop-opacity:1;"
       offset="1"
       id="stop28" /></linearGradient><linearGradient
     inkscape:collect="always"
     xlink:href="#linearGradient28-1"
     id="linearGradient76"
     x1="507.83783"
     y1="2116.3853"
     x2="507.83783"
     y2="240.16663"
     gradientUnits="userSpaceOnUse" /><linearGradient
     inkscape:collect="always"
     xlink:href="#linearGradient28-1"
     id="linearGradient81"
     x1="507.83783"
     y1="2116.3853"
     x2="507.83783"
     y2="240.16663"
     gradientUnits="userSpaceOnUse" /><linearGradient
     inkscape:collect="always"
     xlink:href="#linearGradient28-1"
     id="linearGradient82"
     x1="-2116.3853"
     y1="507.83783"
     x2="-240.16663"
     y2="507.83783"
     gradientUnits="userSpaceOnUse" /><linearGradient
     inkscape:collect="always"
     xlink:href="#linearGradient28-1"
     id="linearGradient83"
     x1="-2116.3853"
     y1="507.83783"
     x2="-240.16663"
     y2="507.83783"
     gradientUnits="userSpaceOnUse" /><linearGradient
     inkscape:collect="always"
     xlink:href="#linearGradient28-1"
     id="linearGradient84"
     x1="507.83783"
     y1="2116.3853"
     x2="507.83783"
     y2="240.16663"
     gradientUnits="userSpaceOnUse" /><linearGradient
     inkscape:collect="always"
     xlink:href="#linearGradient28-1"
     id="linearGradient85"
     x1="-2116.3853"
     y1="507.83783"
     x2="-240.16663"
     y2="507.83783"
     gradientUnits="userSpaceOnUse" /><linearGradient
     inkscape:collect="always"
     xlink:href="#linearGradient28-1"
     id="linearGradient86"
     x1="-2116.3853"
     y1="507.83783"
     x2="-240.16663"
     y2="507.83783"
     gradientUnits="userSpaceOnUse" /><linearGradient
     inkscape:collect="always"
     xlink:href="#linearGradient28-1"
     id="linearGradient87"
     x1="507.83783"
     y1="2116.3853"
     x2="507.83783"
     y2="240.16663"
     gradientUnits="userSpaceOnUse" /><linearGradient
     inkscape:collect="always"
     xlink:href="#linearGradient28-1"
     id="linearGradient88"
     x1="507.83783"
     y1="2116.3853"
     x2="507.83783"
     y2="240.16663"
     gradientUnits="userSpaceOnUse" /><linearGradient
     inkscape:collect="always"
     xlink:href="#linearGradient28-1"
     id="linearGradient89"
     x1="-2116.3853"
     y1="507.83783"
     x2="-240.16663"
     y2="507.83783"
     gradientUnits="userSpaceOnUse" /><linearGradient
     inkscape:collect="always"
     xlink:href="#linearGradient28-1"
     id="linearGradient90"
     x1="507.83783"
     y1="2116.3853"
     x2="507.83783"
     y2="240.16663"
     gradientUnits="userSpaceOnUse" /><linearGradient
     inkscape:collect="always"
     xlink:href="#linearGradient28-1"
     id="linearGradient91"
     x1="507.83783"
     y1="2116.3853"
     x2="507.83783"
     y2="240.16663"
     gradientUnits="userSpaceOnUse" /><linearGradient
     inkscape:collect="always"
     xlink:href="#linearGradient28-1"
     id="linearGradient92"
     x1="507.83783"
     y1="2116.3853"
     x2="507.83783"
     y2="240.16663"
     gradientUnits="userSpaceOnUse" /><linearGradient
     inkscape:collect="always"
     xlink:href="#linearGradient28-1"
     id="linearGradient93"
     x1="507.83783"
     y1="2116.3853"
     x2="507.83783"
     y2="240.16663"
     gradientUnits="userSpaceOnUse" /><linearGradient
     inkscape:collect="always"
     xlink:href="#linearGradient28-1"
     id="linearGradient94"
     x1="-2116.3853"
     y1="507.83783"
     x2="-240.16663"
     y2="507.83783"
     gradientUnits="userSpaceOnUse" /><linearGradient
     inkscape:collect="always"
     xlink:href="#linearGradient28-1"
     id="linearGradient95"
     x1="-2116.3853"
     y1="507.83783"
     x2="-240.16663"
     y2="507.83783"
     gradientUnits="userSpaceOnUse" /><linearGradient
     inkscape:collect="always"
     xlink:href="#linearGradient28-1"
     id="linearGradient96"
     x1="507.83783"
     y1="2116.3853"
     x2="507.83783"
     y2="240.16663"
     gradientUnits="userSpaceOnUse" /><linearGradient
     inkscape:collect="always"
     xlink:href="#linearGradient28-1"
     id="linearGradient97"
     x1="507.83783"
     y1="2116.3853"
     x2="507.83783"
     y2="240.16663"
     gradientUnits="userSpaceOnUse" /><linearGradient
     inkscape:collect="always"
     xlink:href="#linearGradient28-1"
     id="linearGradient98"
     x1="507.83783"
     y1="2116.3853"
     x2="507.83783"
     y2="240.16663"
     gradientUnits="userSpaceOnUse" /><linearGradient
     inkscape:collect="always"
     xlink:href="#linearGradient28-1"
     id="linearGradient99"
     x1="507.83783"
     y1="2116.3853"
     x2="507.83783"
     y2="240.16663"
     gradientUnits="userSpaceOnUse" /><linearGradient
     inkscape:collect="always"
     xlink:href="#linearGradient28-1"
     id="linearGradient100"
     x1="507.83783"
     y1="2116.3853"
     x2="507.83783"
     y2="240.16663"
     gradientUnits="userSpaceOnUse" /></defs><metadata
   id="metadata69"><rdf:RDF><cc:Work
       rdf:about=""><dc:format>image/svg+xml</dc:format><dc:type
         rdf:resource="http://purl.org/dc/dcmitype/StillImage" /><dc:title>Logo-MAX-noir-reussite-collaborative</dc:title></cc:Work></rdf:RDF></metadata><sodipodi:namedview
   pagecolor="#ffffff"
   bordercolor="#666666"
   borderopacity="1"
   objecttolerance="10"
   gridtolerance="10"
   guidetolerance="10"
   inkscape:pageopacity="0"
   inkscape:pageshadow="2"
   inkscape:window-width="2560"
   inkscape:window-height="1298"
   id="namedview65"
   showgrid="false"
   inkscape:zoom="0.27689326"
   inkscape:cx="-1933.9582"
   inkscape:cy="738.55174"
   inkscape:window-x="0"
   inkscape:window-y="221"
   inkscape:window-maximized="1"
   inkscape:current-layer="g62"
   inkscape:showpageshadow="2"
   inkscape:pagecheckerboard="0"
   inkscape:deskcolor="#d1d1d1" />
<title
   id="title2">Logo-MAX-noir-reussite-collaborative</title>
<g
   id="g62"
   transform="translate(-46.384504,-93.850397)">
	
	
	<path
   d="m 643.08474,2047.2504 c -4.7,13.1 -7.1,27 -6.9,40.9 v 95.2 h 206.4 v -92.7 c 0,-16 -2.3,-30.4 -6.8,-43.2 -4.2,-12.2 -10.9,-23.3 -19.9,-32.6 -9.1,-9.2 -20.1,-16.2 -32.2,-20.5 -12.7,-4.7 -27.3,-7.1 -43.9,-7.1 -16.4,0 -31,2.5 -43.9,7.4 -12.2,4.5 -23.3,11.5 -32.6,20.6 -8.9,9.1 -15.8,20 -20.2,32 z m 136.3,14.4 c 8.9,8.8 13.3,20.1 13.3,33.9 v 27.4 h -106.6 v -27.4 c 0,-14.4 4.7,-25.9 14,-34.4 9.3,-8.5 22.6,-12.7 39.7,-12.7 17.5,0.1 30.7,4.5 39.6,13.2 z"
   id="path8"
   style="fill-opacity:1;fill:url(#linearGradient81)" />
	<rect
   x="-1973.2504"
   y="636.18481"
   width="54.599998"
   height="41.299999"
   id="rect10"
   transform="rotate(-90)"
   style="fill-opacity:1;fill:url(#linearGradient82)" />
	<rect
   x="-1973.2504"
   y="695.38477"
   width="54.599998"
   height="147.2"
   id="rect12"
   transform="rotate(-90)"
   style="fill-opacity:1;fill:url(#linearGradient83)" />
	<path
   d="m 880.18474,1807.2504 c -2.2,-8.9 -6.5,-17.2 -12.4,-24.3 -6,-6.8 -13.4,-12.2 -21.7,-15.7 -8.9,-3.9 -19.2,-5.9 -31.2,-5.9 h -129.5 v 52 h 16.2 v 0.9 c -6.3,4.1 -11.5,9.7 -15.2,16.3 -3.8,6.6 -5.6,15.2 -5.6,25.6 -0.1,8.6 1.9,17.1 5.8,24.7 3.8,7.4 9.3,13.8 15.9,18.9 7.2,5.4 15.2,9.5 23.8,12.1 9.6,3 19.6,4.4 29.6,4.3 11.5,0 21.7,-1.7 30.3,-5.1 8.1,-3 15.5,-7.7 21.8,-13.7 5.8,-5.6 10.2,-12.4 13.1,-19.9 2.9,-7.7 4.4,-15.8 4.3,-24 0,-8.7 -1.5,-15.9 -4.6,-21.8 -3,-5.8 -7.1,-11.1 -12.1,-15.4 v -1.2 h 13.3 c 7.7,0 13.9,1.7 18.6,5.2 4.7,3.5 7.1,9.6 7.1,18.5 0,6.5 -1.3,11.6 -3.9,15.2 -2.6,3.6 -5.4,5.8 -8.5,6.8 v 52.5 c 16.4,-2.7 28.6,-10.7 36.7,-24.1 8.1,-13.4 12.1,-30.5 12.1,-51.2 0,-10.4 -1.3,-20.7 -3.9,-30.7 z m -102.5,11.9 c 6.4,4.3 9.5,10.5 9.5,18.6 0.2,7.3 -3.4,14.2 -9.5,18.3 -6.4,4.5 -14.4,6.8 -24.3,6.8 -9.9,0 -18,-2.3 -24.1,-6.8 -6.1,-4.5 -9.1,-10.6 -9.1,-18.3 0,-8.1 3.2,-14.3 9.7,-18.6 6.5,-4.3 14.3,-6.5 23.5,-6.5 9.9,0.1 18,2.2 24.3,6.5 z"
   id="path14"
   style="fill-opacity:1;fill:url(#linearGradient84)" />
	<rect
   x="-1741.6504"
   y="626.18481"
   width="54.599998"
   height="41.299999"
   id="rect16"
   transform="rotate(-90)"
   style="fill-opacity:1;fill:url(#linearGradient85)" />
	<rect
   x="-1741.6504"
   y="685.38477"
   width="54.599998"
   height="147.2"
   id="rect18"
   transform="rotate(-90)"
   style="fill-opacity:1;fill:url(#linearGradient86)" />
	<path
   d="m 718.28474,1574.8504 h -32.9 v 28 h -47.7 v 53.4 h 47.6 v 19.1 h 32.9 v -19.1 h 71.9 c 8.9,0 16.2,-1.2 21.9,-3.5 5.4,-2.1 10.2,-5.6 13.9,-10.1 3.5,-4.4 5.9,-10 7.4,-16.7 1.5,-7.8 2.3,-15.7 2.2,-23.7 0,-4.7 -0.3,-9.4 -1,-14 -0.7,-4.3 -1.5,-8.6 -2.5,-12.8 h -40.1 c 0.4,3.8 0.5,7.6 0.4,11.4 0,3 -0.5,5.9 -1.4,8.7 -0.8,2.3 -2.3,4.2 -4.3,5.5 -2,1.3 -4.9,1.9 -8.5,1.9 h -59.8 z"
   id="path20"
   style="fill-opacity:1;fill:url(#linearGradient87)" />
	<path
   d="m 740.78474,1479.5504 c 1.6,4 2.7,8.1 3.5,12.3 1,5.1 1.8,11.5 2.6,19.2 0.7,6.9 2,13.7 3.8,20.4 1.6,6.1 4.2,11.9 7.8,17 3.5,4.9 8.1,8.9 13.4,11.7 5.5,2.9 12.3,4.3 20.4,4.3 7.3,0 13.7,-1.2 19.2,-3.8 5.3,-2.3 10,-5.8 13.7,-10.2 3.8,-4.5 6.7,-9.8 8.4,-15.4 2,-6.3 2.9,-13 2.9,-19.6 0,-9.6 -1.6,-18.2 -4.9,-25.7 -3.3,-7.5 -8.4,-14 -15,-18.8 v -0.6 c 3.3,-0.4 6.6,-1.2 9.8,-2.2 2.2,-0.8 4.3,-1.7 6.4,-2.7 v -53.7 h -2.3 c -1.5,2.3 -4,3.8 -7.5,4.5 -4.8,0.8 -9.6,1.1 -14.4,1 h -73.9 c -20,0 -34.7,7.6 -44.2,22.8 -3.7,6.1 -6.2,12.8 -7.5,19.8 -1.7,9.4 -2.4,18.9 -2.3,28.4 0,11.5 1.4,21.7 4.2,30.3 2.4,7.9 6.3,15.3 11.4,21.7 4.5,5.6 10.3,10.1 16.9,13.1 6.5,3 13.5,4.6 20.6,4.8 v -51.7 c -5.4,-0.8 -9.7,-2.7 -12.8,-5.8 -3.1,-3.1 -4.8,-7.6 -4.8,-13.6 0,-6 1.3,-10.1 4,-12.3 2.9,-2.3 6.5,-3.4 10.1,-3.3 2.1,0 4.2,0.5 5.9,1.7 1.8,1.2 3.2,3.3 4.6,6.4 z m 25.4,-9.6 h 13 c 8.9,0 15.2,2.6 19.1,7.7 3.8,4.9 5.9,11 5.8,17.2 0.1,4.2 -1.1,8.3 -3.3,11.8 -2.2,3.5 -5.8,5.2 -10.8,5.2 -4.4,0 -7.9,-1.4 -10.4,-4.3 -2.5,-2.9 -4.6,-8.4 -6.4,-16.5 -0.8,-4.1 -1.9,-8.1 -3.2,-12 -1.2,-3.3 -2.5,-6.4 -3.8,-9.1 z"
   id="path22"
   style="fill-opacity:1;fill:url(#linearGradient88)" />
	<rect
   x="-1396.3503"
   y="626.18481"
   width="56"
   height="206.39999"
   id="rect24"
   transform="rotate(-90)"
   style="fill-opacity:1;fill:url(#linearGradient89)" />
	<path
   d="m 768.48474,1101.5504 c -11,0 -20.2,2 -27.6,5.9 -7.3,3.8 -13.6,9.2 -18.6,15.7 -5.1,6.7 -9.2,14.2 -12,22.2 -3,8.3 -5.5,16.8 -7.6,25.4 -1.9,7.7 -3.5,14.6 -4.8,20.6 -1,5.2 -2.4,10.3 -4,15.3 -1.4,4.1 -3.1,7.3 -5.1,9.4 -1.9,2.1 -4.7,3.3 -7.5,3.2 -4.2,0 -7.7,-2.1 -10.4,-6.2 -2.7,-4.1 -4,-9.6 -4,-16.3 0,-8.3 1.7,-14.5 5.1,-18.6 3.4,-4.1 8.1,-6.9 13.4,-7.7 v -59.8 c -11.2,0.2 -20.7,2.6 -28.7,7.2 -7.9,4.5 -14.6,10.9 -19.6,18.5 -5.3,8.1 -9,17 -11.1,26.4 -2.3,10.1 -3.5,20.4 -3.5,30.7 0,11.1 1.2,22.1 3.6,32.9 2.1,9.7 6,18.8 11.4,27.1 5.1,7.7 12.1,13.9 20.2,18.3 8.3,4.5 18.3,6.8 30,6.8 11,0 20.1,-2.4 27.4,-7.1 7.3,-4.7 13.4,-10.9 18,-18.2 4.8,-7.7 8.7,-16 11.4,-24.7 2.9,-9 5.4,-17.9 7.5,-26.6 1.5,-6.4 3,-12 4.3,-16.9 1.1,-4.2 2.5,-8.3 4.3,-12.3 1.2,-2.9 3.1,-5.5 5.5,-7.5 2.2,-1.8 5,-2.7 7.8,-2.6 2.8,-0.1 5.6,0.8 7.9,2.5 2.2,1.6 4,3.7 5.3,6.2 1.4,2.7 2.4,5.5 2.9,8.5 0.6,3 0.9,6 0.9,9.1 0,10 -2,18 -5.9,24.1 -3.9,6.1 -10.1,9.6 -18.3,10.5 v 61.8 c 11.9,-0.2 22.3,-2.7 31.2,-7.7 8.9,-4.9 16.4,-11.8 22.1,-20.2 6.1,-9.1 10.6,-19.3 13.1,-30 3,-12.2 4.4,-24.8 4.3,-37.4 0.1,-11.6 -1.4,-23.2 -4.5,-34.4 -2.7,-10.1 -7.1,-19.7 -13.1,-28.3 -5.6,-8 -13,-14.5 -21.5,-19.2 -9.3,-4.5 -19.5,-6.7 -29.8,-6.6 z"
   id="path26"
   style="fill-opacity:1;fill:url(#linearGradient90)" />
	<path
   d="m 824.18474,964.7504 c -4.3,-7 -9.8,-13.2 -16.2,-18.3 -5.6,-4.6 -12.2,-7.9 -19.3,-9.7 v 52.8 c 7.3,4 11,10.9 11,20.5 0,8.3 -2.4,14.8 -7.2,19.5 -4.8,4.7 -11.5,7.8 -20.2,9.4 v -105.1 c -13.8,-0.5 -27.6,1.4 -40.7,5.8 -11.9,3.9 -22.7,10.7 -31.2,19.9 -6.3,6.9 -11.2,14.8 -14.6,23.5 -3.6,9 -5.3,19.2 -5.3,30.8 -0.1,10.9 1.9,21.7 5.9,31.8 3.7,9.3 9.3,17.8 16.5,24.8 7.1,7 15.6,12.5 24.8,16.2 20,7.7 42.3,7.7 62.3,0 9.3,-3.7 17.7,-9.3 24.7,-16.5 7,-7.3 12.5,-15.9 16.2,-25.4 4,-10.5 5.9,-21.7 5.8,-32.9 0.1,-8.6 -0.9,-17.2 -2.9,-25.6 -2,-7.7 -5.2,-14.9 -9.6,-21.5 z m -100,65.5 c -4.7,-4.2 -7.1,-10.1 -7.1,-17.6 -0.2,-6.2 2.4,-12.1 6.9,-16.3 4.6,-4.3 11.1,-7.1 19.3,-8.2 v 50.8 c -8,-1.5 -14.4,-4.4 -19.1,-8.7 z"
   id="path28"
   style="fill-opacity:1;fill:url(#linearGradient91)" />
	<path
   d="m 730.08474,814.8504 v -1.2 h -46.5 c -1,1.9 -1.4,4.9 -1.4,9 0,9.4 1.9,17.8 5.8,25 3.9,7.2 10.4,13.8 19.6,19.8 v 0.9 h -22.2 v 52 h 147.2 v -54.6 h -60.3 c -16.7,0 -28.6,-4.4 -35.7,-13.3 -7.1,-8.9 -9.2,-21.4 -6.5,-37.6 z"
   id="path30"
   style="fill-opacity:1;fill:url(#linearGradient92)" />
	<path
   d="m 741.88474,713.5504 c 3.9,1.2 7.8,2.3 12,3.5 4.2,1.2 7.9,2.2 11.4,3.2 4,1.2 8.1,2.2 12.1,3.2 v 0.6 c -4,1.2 -8.1,2.2 -12.1,3.2 -3.5,1 -7.3,2 -11.4,3.2 -4.1,1.2 -8.1,2.2 -12,3.2 l -56.6,16.7 v 56.5 l 147.2,-50.5 v -63.8 l -147.2,-50.5 v 54.8 z"
   id="path32"
   style="fill-opacity:1;fill:url(#linearGradient93)" />
	<rect
   x="-634.15045"
   y="685.38477"
   width="54.599998"
   height="147.2"
   id="rect34"
   transform="rotate(-90)"
   style="fill-opacity:1;fill:url(#linearGradient94)" />
	<rect
   x="-634.15045"
   y="626.18481"
   width="54.599998"
   height="41.299999"
   id="rect36"
   transform="rotate(-90)"
   style="fill-opacity:1;fill:url(#linearGradient95)" />
	<path
   d="m 719.08474,485.7504 c 0,-6 1.8,-10.6 5.3,-13.9 3.5,-3.3 8.7,-5.7 15.4,-7.2 v -52.5 c -8.3,0.9 -16.4,3.3 -23.8,7.2 -7.1,3.8 -13.4,9 -18.6,15.2 -5.3,6.6 -9.4,14.1 -12.1,22.2 -3,9.2 -4.4,18.8 -4.3,28.4 -0.1,11.3 1.9,22.5 5.9,33.1 3.7,9.6 9.3,18.3 16.5,25.6 7.1,7.1 15.5,12.7 24.8,16.5 19.9,7.7 42.1,7.7 62,0 9.3,-3.7 17.7,-9.3 24.7,-16.5 7.1,-7.3 12.6,-16.1 16.3,-25.6 4,-10.6 6,-21.8 5.9,-33.1 0.1,-10.3 -1.5,-20.5 -4.9,-30.2 -3,-8.6 -7.6,-16.5 -13.6,-23.4 -5.7,-6.4 -12.6,-11.5 -20.4,-15 -7.9,-3.6 -16.6,-5.4 -25.3,-5.3 v 52.6 c 8.5,0.8 14.9,2.8 19.2,6.2 4.3,3.4 6.5,8.4 6.5,15.2 0,8.5 -3.5,14.8 -10.5,19.1 -7,4.3 -16.7,6.4 -29,6.4 -12.5,0 -22.3,-2 -29.5,-6.1 -6.9,-4.2 -10.5,-10.4 -10.5,-18.9 z"
   id="path38"
   style="fill-opacity:1;fill:url(#linearGradient96)" />
	<path
   d="m 731.58474,251.9504 c -11.9,3.9 -22.7,10.7 -31.2,19.9 -6.3,6.9 -11.2,14.8 -14.6,23.5 -3.6,8.9 -5.3,19.2 -5.3,30.7 -0.1,10.9 1.9,21.7 5.9,31.8 3.7,9.3 9.3,17.8 16.5,24.8 7.1,7 15.6,12.5 24.8,16.2 20,7.7 42.3,7.7 62.3,0 9.3,-3.7 17.7,-9.3 24.7,-16.5 7,-7.3 12.5,-15.9 16.2,-25.4 4,-10.5 5.9,-21.7 5.8,-32.9 0.1,-8.6 -0.9,-17.2 -2.9,-25.6 -1.9,-7.7 -5.1,-14.9 -9.5,-21.5 -4.3,-7 -9.8,-13.2 -16.2,-18.3 -5.6,-4.6 -12.2,-7.9 -19.3,-9.7 v 52.9 c 7.3,4 11,10.9 11,20.5 0,8.3 -2.4,14.8 -7.2,19.5 -4.8,4.7 -11.5,7.8 -20.2,9.4 v -105.1 c -13.8,-0.5 -27.7,1.4 -40.8,5.8 z m 11.8,99.3 c -8.1,-1.5 -14.5,-4.4 -19.2,-8.7 -4.7,-4.2 -7.1,-10.1 -7.1,-17.6 -0.2,-6.2 2.4,-12.1 6.9,-16.3 4.6,-4.3 11.1,-7.1 19.3,-8.2 z"
   id="path40"
   style="fill-opacity:1;fill:url(#linearGradient97)" />
	<path
   d="m 747.58474,114.9504 c -3.6,6.1 -6.2,12.7 -7.7,19.6 -1.5,7.2 -2.8,14.2 -3.8,20.9 -0.6,4.2 -1.2,8.2 -1.7,11.8 -0.5,3.3 -1.2,6.5 -2.2,9.7 -0.7,2.4 -1.8,4.6 -3.3,6.5 -1.3,1.5 -3.2,2.3 -5.2,2.3 -3.8,0 -6.6,-1.6 -8.2,-4.8 -1.7,-3.4 -2.5,-7.1 -2.5,-10.8 -0.1,-4.1 0.8,-8.2 2.5,-12 1.6,-3.6 5.2,-5.7 10.8,-6.5 v -51.4 c -14.4,1 -25.6,7.3 -33.6,18.9 -8,11.6 -12,28.7 -12,51.2 0,8.7 1,17.3 3,25.7 1.8,7.6 4.9,14.8 9.1,21.4 3.8,5.9 8.9,10.9 14.9,14.6 6.1,3.6 13,5.4 20.1,5.3 9.2,0 16.7,-1.6 22.5,-4.9 5.5,-3.1 10.2,-7.4 13.7,-12.6 3.4,-5.3 5.9,-11.1 7.4,-17.2 1.5,-6.4 2.8,-12.6 3.8,-18.8 0.8,-4.8 1.5,-9.4 2.2,-13.7 0.6,-3.9 1.4,-7.7 2.6,-11.4 0.9,-2.9 2.3,-5.6 4.3,-7.9 1.9,-2 4.6,-3.1 7.4,-3 4.4,0 7.7,1.8 9.7,5.3 2,3.5 3,8 3,13.4 0,6.9 -1.7,12.3 -5.1,16 -3.4,3.7 -8.1,5.8 -14.3,6.2 v 52.3 c 8.5,0 16,-1.8 22.5,-5.5 6.6,-3.8 12.2,-9 16.5,-15.3 4.7,-7.2 8.1,-15.1 10.1,-23.4 2.4,-9.8 3.6,-19.9 3.5,-30 0,-9.5 -0.9,-19 -2.9,-28.3 -1.6,-8.2 -4.7,-16 -9.1,-23.1 -3.9,-6.3 -9.3,-11.6 -15.7,-15.4 -6.4,-3.800003 -14,-5.600003 -22.8,-5.600003 -10.2,0 -18.4,1.9 -24.7,5.800003 -6.1,3.6 -11.2,8.6 -14.8,14.7 z"
   id="path42"
   style="fill-opacity:1;fill:url(#linearGradient98)" />
	<path
   d="m 491.68474,859.1504 -117.7,-118.2 -244.59996,245.4 c -52.299998,50.7 -81.799998,120.5 -81.699998,193.4 0,149 120.799998,269.8 269.799998,269.8 148.99996,0 269.89996,-120.7 269.89996,-269.7 0.1,-74 -30.3,-144.8 -84.1,-195.7 l -49.8,-49.6 -7.8,7.8 v 0 l -55,55 v 0 l -55.19996,55.2 55.09996,54.9 0.2,-0.2 v 0.6 c 39.8,40.5 39.3,105.6 -1.1,145.4 -40.4,39.8 -105.59996,39.3 -145.39996,-1.1 -39.3,-39.9 -39.4,-103.9 -0.3,-144 v -0.3 l 146.59996,-147.1 z"
   id="path44"
   style="fill-opacity:1;fill:url(#linearGradient99)" />
	<path
   d="m 512.98474,93.850397 -118.2,118.200003 c 38.3,41.8 35.5,106.8 -6.3,145.2 -18,16.5 -41.3,26 -65.69996,26.9 -2.1,0 -4.2,-0.1 -6.4,-0.1 h -2.7 c -56.7,-2.9 -100.3,-51.3 -97.4,-108 1.1,-22 9.3,-43 23.3,-60 l -118.3,-118.200003 c -96.599998,104.000003 -96.099998,265.100003 1.2,368.500003 -99.699998,103.1 -101.399998,266.1 -3.8,371.2 l 118.3,-118.3 c -36.1,-43.8 -29.8,-108.6 14.1,-144.7 17.4,-14.3 39,-22.5 61.5,-23.3 2.1,0 4.2,0.1 6.4,0.1 h 2.7 c 56.69996,2.9 100.29996,51.3 97.39996,108 -1.2,23.8 -10.7,46.5 -26.9,64.1 l 118.2,118.2 c 100.2,-103.6 101.3,-267.6 2.6,-372.5 101.2,-104.6 101.2,-270.7 0,-375.300003 z"
   id="path46"
   style="fill-opacity:1;fill:url(#linearGradient76)" />
	
	
	
	
	<path
   d="m 202.58478,1452.0504 c -35.1,-14.8 -67,-36.3 -93.9,-63.3 -1.3,-1.3 -2.5,-2.6 -3.8,-3.9 -83.899998,105.7 -76.799998,257.1 16.5,354.5 -48.199998,50.2 -75.099998,117.1 -74.999998,186.7 0.1,149 120.899998,269.8 269.899998,269.8 3.5,0 7.1,-0.1 10.6,-0.2 h 260.69996 v -167 H 315.58478 v 0 c -1.6,0.1 -3.2,0.1 -4.8,0.1 -56.8,0 -102.8,-46 -102.8,-102.8 0,-56.8 46,-102.8 102.8,-102.8 1.6,0 3.2,0 4.8,0.1 v 0 h 271.99996 v -167.4 H 315.58478 c -1.6,0.1 -3.2,0 -4.8,0 -56.8,0 -102.8,-46.5 -102.8,-103.3 0,-33.8 16.6,-65.4 44.4,-84.6 -17,-3.8 -33.7,-9.1 -49.8,-15.9 z"
   id="path56"
   style="fill-opacity:1;fill:url(#linearGradient100)" />
	
	
</g>
</svg>
